<svg width="28" height="28" viewBox="0 0 28 28" fill="none" xmlns="http://www.w3.org/2000/svg">
<g id="bank_account" clip-path="url(#clip0_473_10514)">
<path id="Union" fill-rule="evenodd" clip-rule="evenodd" d="M2.33331 20.0667V4.66675H25.6666V20.0667C25.6666 21.9334 24.15 23.3334 22.4 23.3334H5.48331C3.73331 23.3334 2.33331 21.9334 2.33331 20.0667ZM23.9166 8.16675V6.41675H4.08331V8.16675H23.9166ZM5.48331 21.5834H22.4C23.2166 21.5834 23.9166 20.8834 23.9166 20.1834V9.91675H4.08331V20.1834C4.08331 20.8834 4.66665 21.5834 5.48331 21.5834ZM13.9991 14.4667L15.8657 11.0834H17.2657L15.2824 14.5834H16.9157V15.7501H14.5824V16.9167H16.9157V18.0834H14.5824V19.8334H13.4157V18.0834H11.0824V16.9167H13.4157V15.7501H11.0824V14.5834H12.7157L10.7324 11.0834H12.1324L13.9991 14.4667Z" fill="#949497"/>
</g>
<defs>
<clipPath id="clip0_473_10514">
<rect width="28" height="28" fill="white"/>
</clipPath>
</defs>
</svg>
