<svg width="28" height="28" viewBox="0 0 28 28" fill="none" xmlns="http://www.w3.org/2000/svg">
<g id="classification 2" clip-path="url(#clip0_473_10516)">
<path id="Vector" d="M13.125 17.5C13.6082 17.5 14 17.1082 14 16.625C14 16.1418 13.6082 15.75 13.125 15.75C12.6418 15.75 12.25 16.1418 12.25 16.625C12.25 17.1082 12.6418 17.5 13.125 17.5Z" fill="#949497"/>
<path id="Vector_2" d="M24.2375 8.13756L18.1125 2.01256C18.0355 1.92709 17.9408 1.85936 17.8351 1.81404C17.7293 1.76872 17.615 1.74689 17.5 1.75006H8.75C8.28628 1.7514 7.84194 1.9362 7.51404 2.2641C7.18614 2.592 7.00134 3.03634 7 3.50006V12.2501H5.25C4.78603 12.2506 4.34122 12.4351 4.01315 12.7632C3.68508 13.0913 3.50053 13.5361 3.5 14.0001V19.2501C3.50053 19.714 3.68508 20.1588 4.01315 20.4869C4.34122 20.815 4.78603 20.9995 5.25 21.0001H7V24.5001C7.00134 24.9638 7.18614 25.4081 7.51404 25.736C7.84194 26.0639 8.28628 26.2487 8.75 26.2501H22.75C23.2137 26.2487 23.6581 26.0639 23.986 25.736C24.3139 25.4081 24.4987 24.9638 24.5 24.5001V8.75006C24.5031 8.63505 24.4813 8.52074 24.436 8.415C24.3907 8.30925 24.3229 8.2146 24.2375 8.13756ZM17.5 3.85006L22.4 8.75006H17.5V3.85006ZM5.25 14.0001H13.6476L16.625 16.6251L13.6565 19.2501H5.25V14.0001ZM22.75 24.5001H8.75V21.0001H13.6578C14.0803 20.9992 14.4883 20.8462 14.8071 20.5689L17.7675 17.9512C17.9574 17.7874 18.11 17.5848 18.2148 17.357C18.3196 17.1291 18.3743 16.8815 18.3751 16.6307C18.3759 16.3799 18.3229 16.1319 18.2196 15.9034C18.1163 15.6748 17.9651 15.4712 17.7762 15.3062L14.7983 12.6739C14.4813 12.4005 14.0765 12.2501 13.6578 12.2501H8.75V3.50006H15.75V8.75006C15.7513 9.21377 15.9361 9.65812 16.264 9.98601C16.5919 10.3139 17.0363 10.4987 17.5 10.5001H22.75V24.5001Z" fill="#949497"/>
</g>
<defs>
<clipPath id="clip0_473_10516">
<rect width="28" height="28" fill="white"/>
</clipPath>
</defs>
</svg>
