<svg width="36" height="36" viewBox="0 0 36 36" fill="none" xmlns="http://www.w3.org/2000/svg">
<g id="complete" clip-path="url(#clip0_783_8241)">
<path id="Union" fill-rule="evenodd" clip-rule="evenodd" d="M3 18C3 26.25 9.75 33 18 33C26.25 33 33 26.25 33 18C33 9.75 26.25 3 18 3C9.75 3 3 9.75 3 18ZM5.25 18C5.25 10.95 10.95 5.25 18 5.25C25.05 5.25 30.75 10.95 30.75 18C30.75 25.05 25.05 30.75 18 30.75C10.95 30.75 5.25 25.05 5.25 18ZM10.7988 18L16.7988 24L25.7988 15L24.1488 13.5L16.7988 20.85L12.4488 16.35L10.7988 18Z" fill="#767676"/>
</g>
<defs>
<clipPath id="clip0_783_8241">
<rect width="36" height="36" fill="white"/>
</clipPath>
</defs>
</svg>
