<svg width="36" height="36" viewBox="0 0 36 36" fill="none" xmlns="http://www.w3.org/2000/svg">
<g clip-path="url(#clip0_783_9083)">
<path d="M30.825 16.5375L23.9625 9.675C23.625 9.225 23.0625 9 22.5 9H13.5C12.2625 9 11.25 10.0125 11.25 11.25V31.5C11.25 32.7375 12.2625 33.75 13.5 33.75H29.25C30.4875 33.75 31.5 32.7375 31.5 31.5V18.1125C31.5 17.55 31.275 16.9875 30.825 16.5375ZM22.5 11.25L29.1375 18H22.5V11.25ZM13.5 31.5V11.25H20.25V18C20.25 19.2375 21.2625 20.25 22.5 20.25H29.25V31.5H13.5Z" fill="#767676"/>
<path d="M6.75 20.25H4.5V4.5C4.5 3.2625 5.5125 2.25 6.75 2.25H22.5V4.5H6.75V20.25Z" fill="#767676"/>
</g>
<defs>
<clipPath id="clip0_783_9083">
<rect width="36" height="36" fill="white"/>
</clipPath>
</defs>
</svg>
