<svg width="36" height="36" viewBox="0 0 36 36" fill="none" xmlns="http://www.w3.org/2000/svg">
<g id="data--base--alt 1" clip-path="url(#clip0_473_13256)">
<path id="Vector" d="M13.5 9H7.875V11.25H13.5V9Z" fill="#265FAA"/>
<path id="Vector_2" d="M13.5 13.5H7.875V15.75H13.5V13.5Z" fill="#265FAA"/>
<path id="Vector_3" d="M13.5 18H7.875V20.25H13.5V18Z" fill="#265FAA"/>
<path id="Vector_4" d="M28.125 9H22.5V11.25H28.125V9Z" fill="#265FAA"/>
<path id="Vector_5" d="M28.125 13.5H22.5V15.75H28.125V13.5Z" fill="#265FAA"/>
<path id="Vector_6" d="M28.125 18H22.5V20.25H28.125V18Z" fill="#265FAA"/>
<path id="Vector_7" d="M31.5 4.5H4.5C3.90347 4.50068 3.33157 4.73796 2.90977 5.15977C2.48796 5.58157 2.25068 6.15347 2.25 6.75V31.5C2.25068 32.0965 2.48796 32.6684 2.90977 33.0902C3.33157 33.512 3.90347 33.7493 4.5 33.75H31.5C32.0965 33.7493 32.6684 33.512 33.0902 33.0902C33.512 32.6684 33.7493 32.0965 33.75 31.5V6.75C33.7493 6.15347 33.512 5.58157 33.0902 5.15977C32.6684 4.73796 32.0965 4.50068 31.5 4.5ZM4.5 6.75H16.875V31.5H4.5V6.75ZM19.125 31.5V6.75H31.5V31.5H19.125Z" fill="#265FAA"/>
</g>
<defs>
<clipPath id="clip0_473_13256">
<rect width="36" height="36" fill="white"/>
</clipPath>
</defs>
</svg>
