<svg width="36" height="36" viewBox="0 0 36 36" fill="none" xmlns="http://www.w3.org/2000/svg">
<g id="delete 1" clip-path="url(#clip0_471_6873)">
<path id="Vector" d="M32.6249 29.25H13.4999C13.2017 29.25 12.9155 29.1315 12.7046 28.9206L2.57957 18.7956C2.14014 18.3562 2.14014 17.6439 2.57957 17.2045L12.7046 7.0794C12.9155 6.86846 13.2017 6.75 13.4999 6.75H32.6249C33.2462 6.75 33.7499 7.25378 33.7499 7.875V28.125C33.7499 28.7462 33.2462 29.25 32.6249 29.25ZM13.966 27H31.4999V9H13.966L4.96603 18L13.966 27Z" fill="#767676"/>
<path id="Vector_2" d="M22.9659 18L28.125 12.8409L26.5341 11.25L21.375 16.4091L16.2161 11.25L14.625 12.8409L19.7841 18L14.625 23.1591L16.2161 24.75L21.375 19.5909L26.5341 24.75L28.125 23.1591L22.9659 18Z" fill="#767676"/>
</g>
<defs>
<clipPath id="clip0_471_6873">
<rect width="36" height="36" fill="white"/>
</clipPath>
</defs>
</svg>
