<svg width="28" height="28" viewBox="0 0 28 28" fill="none" xmlns="http://www.w3.org/2000/svg">
<g id="document--multiple-02 2" clip-path="url(#clip0_473_10545)">
<path id="Vector" d="M15.75 27.125H5.25C4.2875 27.125 3.5 26.3375 3.5 25.375V10.5H5.25V25.375H15.75V27.125Z" fill="#949497"/>
<path id="Vector_2" d="M19.25 23.625H8.75C7.7875 23.625 7 22.8375 7 21.875V7H8.75V21.875H19.25V23.625Z" fill="#949497"/>
<path id="Vector_3" d="M21 14H14V15.75H21V14Z" fill="#949497"/>
<path id="Vector_4" d="M24.2375 8.1375L18.1125 2.0125C17.9375 1.8375 17.7625 1.75 17.5 1.75H12.25C11.2875 1.75 10.5 2.5375 10.5 3.5V18.375C10.5 19.3375 11.2875 20.125 12.25 20.125H22.75C23.7125 20.125 24.5 19.3375 24.5 18.375V8.75C24.5 8.4875 24.4125 8.3125 24.2375 8.1375ZM17.5 3.85L22.4 8.75H17.5V3.85ZM22.75 18.375H12.25V3.5H15.75V8.75C15.75 9.7125 16.5375 10.5 17.5 10.5H22.75V18.375Z" fill="#949497"/>
</g>
<defs>
<clipPath id="clip0_473_10545">
<rect width="28" height="28" fill="white"/>
</clipPath>
</defs>
</svg>
