<svg width="28" height="28" viewBox="0 0 28 28" fill="none" xmlns="http://www.w3.org/2000/svg">
<g id="ibm-cloud--hyper-protect-crypto-services 2" clip-path="url(#clip0_473_10551)">
<path id="Vector" d="M21.875 26.25L20.0375 25.375C18.55 24.675 17.5 23.1 17.5 21.4375V15.75H26.25V21.4375C26.25 23.1 25.2875 24.675 23.7125 25.375L21.875 26.25ZM19.25 17.5V21.4375C19.25 22.4875 19.8625 23.3625 20.7375 23.8L21.875 24.325L23.0125 23.8C23.8875 23.3625 24.5 22.4 24.5 21.4375V17.5H19.25Z" fill="#949497"/>
<path id="Vector_2" d="M19.25 10.5C20.2165 10.5 21 9.7165 21 8.75C21 7.7835 20.2165 7 19.25 7C18.2835 7 17.5 7.7835 17.5 8.75C17.5 9.7165 18.2835 10.5 19.25 10.5Z" fill="#949497"/>
<path id="Vector_3" d="M18.375 1.75C14 1.75 10.5 5.25 10.5 9.625C10.5 10.4125 10.5875 11.2 10.85 11.9L1.75 21V26.25H7L15.75 17.5L14.525 16.275L12.075 18.725L10.85 17.5L9.625 18.725L10.85 19.95L9.45 21.35L8.225 20.125L7 21.35L8.225 22.575L6.3 24.5H3.5V21.7L12.075 13.125L12.775 12.425L12.5125 11.375C12.3375 10.7625 12.25 10.2375 12.25 9.625C12.25 6.2125 14.9625 3.5 18.375 3.5C21.7875 3.5 24.5 6.2125 24.5 9.625C24.5 10.9375 24.0625 12.1625 23.3625 13.125H25.375C25.9 12.075 26.1625 10.85 26.1625 9.625C26.25 5.25 22.75 1.75 18.375 1.75Z" fill="#949497"/>
</g>
<defs>
<clipPath id="clip0_473_10551">
<rect width="28" height="28" fill="white"/>
</clipPath>
</defs>
</svg>
