<svg width="32" height="36" viewBox="0 0 32 36" fill="none" xmlns="http://www.w3.org/2000/svg">
<g id="new-tab 1" clip-path="url(#clip0_471_6855)">
<g id="Group">
<path id="Vector" d="M26 29.25H6V6.75H16V4.5H6C5.46973 4.5006 4.96133 4.73784 4.58637 5.15967C4.21141 5.5815 4.00053 6.15345 4 6.75V29.25C4.00053 29.8466 4.21141 30.4185 4.58637 30.8403C4.96133 31.2622 5.46973 31.4994 6 31.5H26C26.5303 31.4994 27.0387 31.2622 27.4136 30.8403C27.7886 30.4185 27.9995 29.8466 28 29.25V18H26V29.25Z" fill="#767676"/>
<path id="Vector_2" d="M26 29.25H6V6.75H16V4.5H6C5.46973 4.5006 4.96133 4.73784 4.58637 5.15967C4.21141 5.5815 4.00053 6.15345 4 6.75V29.25C4.00053 29.8466 4.21141 30.4185 4.58637 30.8403C4.96133 31.2622 5.46973 31.4994 6 31.5H26C26.5303 31.4994 27.0387 31.2622 27.4136 30.8403C27.7886 30.4185 27.9995 29.8466 28 29.25V18H26V29.25Z" fill="#767676"/>
</g>
<path id="Vector_3" d="M26 6.75V2.25H24V6.75H20V9H24V13.5H26V9H30V6.75H26Z" fill="#767676"/>
</g>
<defs>
<clipPath id="clip0_471_6855">
<rect width="32" height="36" fill="white"/>
</clipPath>
</defs>
</svg>
