<svg width="28" height="28" viewBox="0 0 28 28" fill="none" xmlns="http://www.w3.org/2000/svg">
<g id="pen 2" clip-path="url(#clip0_473_10541)">
<path id="Vector" d="M23.8935 5.34354L26.25 2.98734L25.0127 1.75L22.6565 4.10629L21.7 3.15C21.542 2.98404 21.352 2.85191 21.1414 2.76163C20.9308 2.67134 20.7041 2.62479 20.475 2.62479C20.2459 2.62479 20.0192 2.67134 19.8086 2.76163C19.598 2.85191 19.408 2.98404 19.25 3.15L3.5 18.9V24.5H9.1L24.85 8.75C25.0159 8.59203 25.1481 8.40199 25.2383 8.19141C25.3286 7.98084 25.3752 7.75411 25.3752 7.525C25.3752 7.29589 25.3286 7.06916 25.2383 6.85859C25.1481 6.64801 25.0159 6.45797 24.85 6.3L23.8935 5.34354ZM8.4 22.75H5.25V19.6L20.475 4.375L23.625 7.525L8.4 22.75Z" fill="#949497"/>
<path id="Vector_2" d="M14.5127 3.50002L7.875 10.1377L9.11231 11.375L15.75 4.73733L14.5127 3.50002Z" fill="#949497"/>
</g>
<defs>
<clipPath id="clip0_473_10541">
<rect width="28" height="28" fill="white"/>
</clipPath>
</defs>
</svg>
