<svg width="28" height="28" viewBox="0 0 28 28" fill="none" xmlns="http://www.w3.org/2000/svg">
<g id="plan 2" clip-path="url(#clip0_473_10526)">
<path id="Vector" d="M27.125 7C27.125 6.65 26.95 6.3875 26.6875 6.2125L20.5625 2.7125C20.3875 2.625 20.3 2.625 20.125 2.625C19.95 2.625 19.8625 2.625 19.6875 2.7125L14 5.95L8.3125 2.7125C8.1375 2.625 8.05 2.625 7.875 2.625C7.7 2.625 7.6125 2.625 7.4375 2.7125L1.3125 6.2125C1.05 6.3875 0.875 6.65 0.875 7V24.5C0.875 25.025 1.225 25.375 1.75 25.375C1.925 25.375 2.0125 25.2875 2.1875 25.2875L7.875 22.05L13.5625 25.2875C13.7375 25.375 13.825 25.375 14 25.375C14.175 25.375 14.2625 25.375 14.4375 25.2875L20.125 22.05L25.8125 25.2875C25.9 25.375 26.075 25.375 26.25 25.375C26.775 25.375 27.125 25.025 27.125 24.5V7ZM2.625 7.525L7 4.9875V20.475L2.625 23.0125V7.525ZM13.125 23.0125L8.75 20.475V4.9875L13.125 7.525V23.0125ZM19.25 20.475L14.875 23.0125V7.525L19.25 4.9875V20.475ZM21 20.475V4.9875L25.375 7.525V23.0125L21 20.475Z" fill="#949497"/>
</g>
<defs>
<clipPath id="clip0_473_10526">
<rect width="28" height="28" fill="white"/>
</clipPath>
</defs>
</svg>
