<svg width="36" height="36" viewBox="0 0 36 36" fill="none" xmlns="http://www.w3.org/2000/svg">
<g id="request-quote 1" clip-path="url(#clip0_471_6851)">
<path id="Vector" d="M24.75 24.75V31.5H6.75V4.5H18V2.25H6.75C6.15326 2.25 5.58097 2.48705 5.15901 2.90901C4.73705 3.33097 4.5 3.90326 4.5 4.5V31.5C4.5 32.0967 4.73705 32.669 5.15901 33.091C5.58097 33.5129 6.15326 33.75 6.75 33.75H24.75C25.3467 33.75 25.919 33.5129 26.341 33.091C26.7629 32.669 27 32.0967 27 31.5V24.75H24.75Z" fill="#767676"/>
<path id="Vector_2" d="M33.2325 6.47997L29.52 2.76747C29.1835 2.43766 28.7312 2.25293 28.26 2.25293C27.7888 2.25293 27.3365 2.43766 27 2.76747L11.25 18.5175V24.75H17.4712L33.2213 8.99997C33.5511 8.6635 33.7358 8.21113 33.7358 7.73997C33.7358 7.26882 33.5511 6.81644 33.2213 6.47997H33.2325ZM16.5375 22.5H13.5V19.4625L24.12 8.83122L27.1687 11.88L16.5375 22.5ZM28.755 10.2937L25.7063 7.24497L28.26 4.69122L31.3088 7.73997L28.755 10.2937Z" fill="#767676"/>
</g>
<defs>
<clipPath id="clip0_471_6851">
<rect width="36" height="36" fill="white"/>
</clipPath>
</defs>
</svg>
