<svg width="28" height="28" viewBox="0 0 28 28" fill="none" xmlns="http://www.w3.org/2000/svg">
<g id="result 2" clip-path="url(#clip0_473_10556)">
<path id="Vector" d="M19.2499 20.125H12.2499V21.875H19.2499V20.125Z" fill="#949497"/>
<path id="Vector_2" d="M10.4999 20.125H8.74994V21.875H10.4999V20.125Z" fill="#949497"/>
<path id="Vector_3" d="M19.2499 15.75H12.2499V17.5H19.2499V15.75Z" fill="#949497"/>
<path id="Vector_4" d="M10.4999 15.75H8.74994V17.5H10.4999V15.75Z" fill="#949497"/>
<path id="Vector_5" d="M19.2499 11.375H12.2499V13.125H19.2499V11.375Z" fill="#949497"/>
<path id="Vector_6" d="M10.4999 11.375H8.74994V13.125H10.4999V11.375Z" fill="#949497"/>
<path id="Vector_7" d="M21.875 4.375H19.25V3.5C19.25 3.03587 19.0656 2.59075 18.7374 2.26256C18.4092 1.93437 17.9641 1.75 17.5 1.75H10.5C10.0359 1.75 9.59075 1.93437 9.26256 2.26256C8.93437 2.59075 8.75 3.03587 8.75 3.5V4.375H6.125C5.66087 4.375 5.21575 4.55937 4.88756 4.88756C4.55937 5.21575 4.375 5.66087 4.375 6.125V24.5C4.375 24.9641 4.55937 25.4092 4.88756 25.7374C5.21575 26.0656 5.66087 26.25 6.125 26.25H21.875C22.3391 26.25 22.7842 26.0656 23.1124 25.7374C23.4406 25.4092 23.625 24.9641 23.625 24.5V6.125C23.625 5.66087 23.4406 5.21575 23.1124 4.88756C22.7842 4.55937 22.3391 4.375 21.875 4.375ZM10.5 3.5H17.5V7H10.5V3.5ZM21.875 24.5H6.125V6.125H8.75V8.75H19.25V6.125H21.875V24.5Z" fill="#949497"/>
</g>
<defs>
<clipPath id="clip0_473_10556">
<rect width="28" height="28" fill="white"/>
</clipPath>
</defs>
</svg>
