<svg width="36" height="36" viewBox="0 0 36 36" fill="none" xmlns="http://www.w3.org/2000/svg">
<g id="search 1" clip-path="url(#clip0_473_11752)">
<path id="Vector" d="M32.625 31.0342L24.1289 22.538C26.1705 20.0871 27.1885 16.9434 26.9713 13.7609C26.754 10.5785 25.3182 7.6023 22.9625 5.45151C20.6068 3.30073 17.5126 2.14094 14.3235 2.21341C11.1345 2.28588 8.09617 3.58502 5.84059 5.84059C3.58502 8.09617 2.28588 11.1345 2.21341 14.3235C2.14094 17.5126 3.30073 20.6068 5.45151 22.9625C7.6023 25.3182 10.5785 26.754 13.7609 26.9713C16.9434 27.1885 20.0871 26.1705 22.538 24.1289L31.0342 32.625L32.625 31.0342ZM4.50002 14.625C4.50002 12.6225 5.09384 10.6649 6.20639 8.99987C7.31894 7.33483 8.90025 6.03708 10.7504 5.27074C12.6005 4.5044 14.6363 4.3039 16.6003 4.69457C18.5644 5.08525 20.3685 6.04956 21.7845 7.46557C23.2005 8.88157 24.1648 10.6857 24.5555 12.6497C24.9461 14.6138 24.7456 16.6496 23.9793 18.4997C23.213 20.3498 21.9152 21.9311 20.2502 23.0437C18.5851 24.1562 16.6276 24.75 14.625 24.75C11.9406 24.747 9.36702 23.6793 7.46885 21.7812C5.57069 19.883 4.503 17.3094 4.50002 14.625Z" fill="#113A62"/>
</g>
<defs>
<clipPath id="clip0_473_11752">
<rect width="36" height="36" fill="white"/>
</clipPath>
</defs>
</svg>
