<svg width="28" height="28" viewBox="0 0 28 28" fill="none" xmlns="http://www.w3.org/2000/svg">
<g id="specialist" clip-path="url(#clip0_473_10513)">
<path id="Union" fill-rule="evenodd" clip-rule="evenodd" d="M10.0306 8.74994C12.4806 9.21661 14.3473 11.4333 14.3473 13.9999C15.6306 13.9999 17.0306 14.1166 18.1973 14.5833C20.8806 13.6499 23.7973 13.8833 26.3639 14.8166V2.79994L25.7806 2.56661C23.3306 1.74994 20.6473 1.74994 18.1973 2.44994C15.5139 1.63327 12.7139 1.74994 10.0306 2.68327V8.74994ZM24.6139 12.5999C22.7473 12.2499 20.8806 12.2499 19.0139 12.5999V4.19994C20.8806 3.73327 22.7473 3.73327 24.6139 4.19994V12.5999ZM10.3824 19.1335C6.18242 18.2001 1.98242 21.5835 1.98242 26.0168H15.9824C15.9824 22.5168 13.6491 19.7168 10.3824 19.1335ZM12.8352 13.9998C12.8352 16.0616 11.1637 17.7331 9.10182 17.7331C7.03996 17.7331 5.36849 16.0616 5.36849 13.9998C5.36849 11.9379 7.03996 10.2664 9.10182 10.2664C11.1637 10.2664 12.8352 11.9379 12.8352 13.9998Z" fill="#949497"/>
</g>
<defs>
<clipPath id="clip0_473_10513">
<rect width="28" height="28" fill="white"/>
</clipPath>
</defs>
</svg>
