<svg width="28" height="28" viewBox="0 0 28 28" fill="none" xmlns="http://www.w3.org/2000/svg">
<g id="star 2" clip-path="url(#clip0_473_10529)">
<path id="Vector" d="M14 5.705L16.415 10.5875L16.8175 11.4625L17.6925 11.5938L23.0825 12.3725L19.25 16.135L18.5937 16.7738L18.7512 17.6488L19.67 23.0125L14.8487 20.4837L14 20.125L13.1862 20.5537L8.365 23.0475L9.24 17.6837L9.3975 16.8087L8.75 16.135L4.8825 12.3288L10.2725 11.55L11.1475 11.4187L11.55 10.5437L14 5.705ZM14 1.75L10.0187 9.8175L1.12 11.1037L7.56 17.3863L6.0375 26.25L14 22.0675L21.9625 26.25L20.44 17.3863L26.88 11.1125L17.9812 9.8175L14 1.75Z" fill="#949497"/>
</g>
<defs>
<clipPath id="clip0_473_10529">
<rect width="28" height="28" fill="white"/>
</clipPath>
</defs>
</svg>
