<svg width="36" height="36" viewBox="0 0 36 36" fill="none" xmlns="http://www.w3.org/2000/svg">
<g id="trash">
<mask id="mask0_471_6862" style="mask-type:alpha" maskUnits="userSpaceOnUse" x="0" y="0" width="36" height="36">
<rect id="Bounding box" width="36" height="36" fill="#D9D9D9"/>
</mask>
<g mask="url(#mask0_471_6862)">
<path id="delete" d="M10.9615 30.7502C10.2135 30.7502 9.57454 30.4853 9.04474 29.9554C8.51491 29.4256 8.25 28.7867 8.25 28.0386V9.0002H6.75V6.75024H13.5V5.42334H22.5V6.75024H29.2499V9.0002H27.7499V28.0386C27.7499 28.7963 27.4874 29.4377 26.9624 29.9627C26.4374 30.4877 25.7961 30.7502 25.0384 30.7502H10.9615ZM25.5 9.0002H10.5V28.0386C10.5 28.1732 10.5432 28.2838 10.6298 28.3704C10.7163 28.4569 10.8269 28.5002 10.9615 28.5002H25.0384C25.1538 28.5002 25.2596 28.4521 25.3557 28.356C25.4519 28.2598 25.5 28.154 25.5 28.0386V9.0002ZM14.1058 25.5002H16.3557V12.0002H14.1058V25.5002ZM19.6442 25.5002H21.8941V12.0002H19.6442V25.5002Z" fill="#767676"/>
</g>
</g>
</svg>
