<svg width="36" height="36" viewBox="0 0 36 36" fill="none" xmlns="http://www.w3.org/2000/svg">
<g id="user--avatar--filled--alt 1" clip-path="url(#clip0_473_13073)">
<path id="Vector" d="M18 9C16.8875 9 15.7999 9.3299 14.8749 9.94798C13.9499 10.5661 13.2289 11.4446 12.8032 12.4724C12.3774 13.5002 12.266 14.6312 12.4831 15.7224C12.7001 16.8135 13.2359 17.8158 14.0225 18.6025C14.8092 19.3891 15.8115 19.9249 16.9026 20.1419C17.9938 20.359 19.1248 20.2476 20.1526 19.8218C21.1804 19.3961 22.0589 18.6751 22.677 17.7501C23.2951 16.8251 23.625 15.7375 23.625 14.625C23.625 13.1332 23.0324 11.7024 21.9775 10.6475C20.9226 9.59263 19.4918 9 18 9Z" fill="black"/>
<path id="Vector_2" d="M18 2.25C14.885 2.25 11.8398 3.17372 9.24978 4.90435C6.6597 6.63499 4.64098 9.0948 3.4489 11.9727C2.25682 14.8507 1.94492 18.0175 2.55264 21.0727C3.16036 24.1279 4.6604 26.9343 6.86307 29.1369C9.06575 31.3396 11.8721 32.8397 14.9273 33.4474C17.9825 34.0551 21.1493 33.7432 24.0273 32.5511C26.9052 31.359 29.365 29.3403 31.0957 26.7502C32.8263 24.1602 33.75 21.1151 33.75 18C33.7453 13.8243 32.0844 9.82094 29.1317 6.86826C26.1791 3.91559 22.1757 2.2547 18 2.25ZM26.9916 28.0415C26.9692 26.5658 26.3679 25.1579 25.3173 24.1214C24.2667 23.0848 22.8509 22.5025 21.375 22.5H14.625C13.1491 22.5025 11.7333 23.0848 10.6827 24.1214C9.63209 25.1579 9.03081 26.5658 9.00844 28.0415C6.96833 26.2199 5.52964 23.8215 4.88288 21.164C4.23613 18.5065 4.41181 15.7153 5.38666 13.1599C6.36152 10.6044 8.08957 8.4054 10.342 6.85391C12.5944 5.30242 15.265 4.47168 18 4.47168C20.7351 4.47168 23.4056 5.30242 25.658 6.85391C27.9104 8.4054 29.6385 10.6044 30.6134 13.1599C31.5882 15.7153 31.7639 18.5065 31.1171 21.164C30.4704 23.8215 29.0317 26.2199 26.9916 28.0415Z" fill="black"/>
</g>
<defs>
<clipPath id="clip0_473_13073">
<rect width="36" height="36" fill="white"/>
</clipPath>
</defs>
</svg>
